<?xml version="1.0" encoding="UTF-8"?>
<!DOCTYPE svg PUBLIC "-//W3C//DTD SVG 1.1//EN" "http://www.w3.org/Graphics/SVG/1.1/DTD/svg11.dtd">
<!-- Creator: CorelDRAW 2018 (64-Bit) -->
<svg xmlns="http://www.w3.org/2000/svg" xml:space="preserve" width="210px" height="36.88px" version="1.1" style="shape-rendering:geometricPrecision; text-rendering:geometricPrecision; image-rendering:optimizeQuality; fill-rule:evenodd; clip-rule:evenodd"
viewBox="0 0 20974.49 3683.55"
 xmlns:xlink="http://www.w3.org/1999/xlink">
 <defs>
  <style type="text/css">
   <![CDATA[
    .fil0 {fill:white;fill-rule:nonzero}
   ]]>
  </style>
 </defs>
 <g id="Слой_x0020_1">
  <metadata id="CorelCorpID_0Corel-Layer"/>
  <path class="fil0" d="M17466.65 60.15c112.36,0 184.39,115.22 190.06,215.99l0 717.19c-282.24,-288.03 -564.43,-576.08 -846.7,-866.93 -31.64,-46.02 -17.3,-89.18 26.01,-89.18l0 -37.21 -864 0 0 60.15c115.11,0 184.32,115.22 190.03,215.99l0 1647.42c-5.71,100.81 -74.92,216 -190.03,216l0 86.36 645.05 0 0 -86.36c-112.22,0 -181.42,-115.19 -190.09,-216l0 -1529.25 1229.73 1272.93 0 256.32c-5.67,100.81 -77.7,216 -190.06,216l0 86.36 645.12 0 0 -86.36c-112.25,0 -181.46,-115.19 -190.09,-216l0 -1661.74c11.59,-97.93 80.68,-201.66 190.09,-201.66l0 -60.15 -645.12 0 0 60.15zm-2620.74 0.07c112.37,0 184.32,115.22 190.1,216.01l0 1324.73c0,357.12 -230.44,553 -504.04,553 -276.41,0 -501.04,-195.88 -501.04,-553l0 -1295.95c8.63,-103.63 77.7,-216.03 190.06,-216.03l0 -88.97 -869.77 0 0 88.97c112.39,0 184.31,112.39 190.12,216.03l0 1258.48c0,480.97 394.57,740.22 881.23,740.22 483.78,0 878.44,-259.24 878.44,-740.22l0 -1301.68c11.49,-97.95 80.55,-201.58 190.1,-201.58l0 -60.22 -645.2 0 0 60.22zm-6747.62 1068.4l313.84 -794.87 371.52 918.76c-210.18,-129.64 -460.74,-167.04 -685.36,-123.89zm835.13 -1128.62l-780.49 0 0 37.17c40.35,8.67 72.02,54.65 72.02,86.36 0,31.67 -23.04,66.28 -28.81,86.46l-679.58 1713.54c-49.01,100.81 -164.19,216.01 -276.59,216.01l0 86.33 671.08 0 0 -86.33c-97.95,0 -190.13,-69.2 -143.96,-175.68l230.29 -584.7c403.27,-74.86 881.27,103.73 1079.99,593.34 34.68,100.8 -54.64,167.04 -149.75,167.04l0 86.33 933.19 0 0 -86.33c-112.36,0 -227.58,-115.2 -273.6,-216.01l-694.13 -1713.54c-8.63,-20.19 -28.72,-54.79 -28.72,-86.46 0,-31.71 28.72,-77.7 69.06,-86.36l0 -37.17zm-3427.16 2139.55c-112.25,0 -184.28,-115.19 -190.05,-216l0 -1529.25 1229.73 1272.93 0 256.32c-8.64,100.81 -77.74,216 -190.1,216l0 86.36 645.16 0 0 -86.36c-112.4,0 -184.32,-115.19 -190.1,-216l0 -1661.74c11.6,-97.93 80.66,-201.66 187.24,-201.66l0 -60.15 -642.3 0 0 60.15c112.36,0 181.46,115.22 190.1,215.99l0 717.19c-282.24,-288.03 -567.32,-576.08 -849.56,-866.93 -31.71,-46.02 -14.44,-89.18 25.9,-89.18l0 -37.21 -861.07 0 0 60.15c112.29,0 181.39,115.22 189.99,215.99l0 1647.42c-8.6,100.81 -77.7,216 -189.99,216l0 86.36 645.05 0 0 -86.36zm5941.35 -792.02l-650.69 -1347.53 -665.37 0 0 60.19c112.25,0 184.25,115.18 189.95,215.98l0 1647.32c-5.7,100.88 -77.7,216.01 -189.95,216.01l0 86.43 645.05 0 0 -86.43c-112.29,0 -184.35,-115.13 -190.13,-216.01l0 -1414.05 633.67 1307.58 244.73 0 633.56 -1296 0 1402.47c-5.67,100.88 -77.69,216.01 -190.09,216.01l0 86.43 869.81 0 0 -86.43c-112.4,0 -181.5,-115.13 -190.13,-216.01l0 -1586.77c0,-31.69 0,-63.36 5.81,-92.26 17.27,-92.16 83.51,-184.27 184.32,-184.27l0 -60.19 -679.86 0 -650.68 1347.53zm7761.41 -218.91l316.75 -794.87 371.56 918.76c-210.21,-129.64 -460.73,-167.04 -688.31,-123.89zm838.06 -1128.62l-780.45 0 0 37.17c40.3,8.67 69.1,54.65 69.1,86.36 0,31.67 -20.13,66.28 -28.79,86.46l-679.64 1713.54c-46.05,100.81 -161.23,216.01 -273.64,216.01l0 86.33 668.2 0 0 -86.33c-95.06,0 -187.2,-69.2 -144.03,-175.68l233.29 -584.7c403.19,-74.86 878.37,103.73 1077.13,593.34 37.49,100.8 -51.83,167.04 -146.93,167.04l0 86.33 933.19 0 0 -86.33c-115.21,0 -230.43,-115.2 -276.55,-216.01l-691.17 -1713.54c-8.63,-20.19 -31.71,-54.79 -31.71,-86.46 0,-31.71 31.71,-77.7 72.02,-86.36l0 -37.17z"/>
  <path class="fil0" d="M-0 0l0 3671.62 383 0 0 -2030.31 524.11 1958.26 368.59 -100.78 -526.97 -1961.23 1013.68 1756.72 331.09 -192.97 -1013.67 -1759.63 1431.33 1434.25 270.64 -270.65 -1437.01 -1437.09 1756.74 1013.77 190.05 -331.24 -1759.58 -1013.74 1958.18 524.16 100.89 -368.68 -1900.66 -509.71 1981.24 0 0 -382.75 -3671.65 0zm3366.44 3308.81c-5.33,-3.95 -11.31,-6.48 -17.3,-8.3 5.9,-1.99 12.26,-3.6 17.3,-6.1 17.29,-5.81 31.58,-20.24 40.33,-34.55 8.62,-14.41 14.3,-34.58 14.3,-54.75 0,-34.58 -11.48,-60.45 -31.69,-77.73 -20.13,-17.29 -51.8,-28.86 -89.2,-28.86l-158.39 0 0 345.62 77.74 0 0 -135.33 40.32 0c8.62,0 20.12,2.87 28.72,5.7 8.68,2.96 14.48,8.64 17.31,20.25l54.74 109.38 83.52 0 -51.81 -103.72c-8.6,-14.34 -17.27,-22.94 -25.89,-31.6zm-80.66 -54.76l-66.25 0 0 -94.98 66.25 0c20.1,0 34.5,2.87 46.11,11.47 11.45,8.66 14.32,20.16 14.32,37.42 0,14.39 -2.88,26 -14.32,34.62 -11.62,8.67 -26.02,11.48 -46.11,11.48zm-14.43 -383.01c-109.46,0 -210.23,46.05 -282.26,118.08 -71.92,72.01 -118.04,172.82 -118.04,282.2 0,112.38 46.11,210.25 118.04,285.09 72.02,72.05 172.8,115.22 282.26,115.22 109.4,0 210.3,-43.17 282.23,-115.22 72.02,-74.84 118.08,-172.71 118.08,-285.09 0,-109.38 -46.05,-210.18 -118.08,-282.2 -71.92,-72.02 -172.83,-118.08 -282.23,-118.08zm230.39 630.73c-60.45,57.6 -141.12,94.98 -230.39,94.98 -89.33,0 -169.9,-37.38 -230.34,-94.98 -57.6,-57.63 -95.11,-141.12 -95.11,-230.46 0,-89.28 37.51,-169.85 95.11,-227.45 60.44,-60.54 141.01,-95.1 230.34,-95.1 89.27,0 169.94,34.57 230.39,95.1 57.62,57.6 95.04,138.17 95.04,227.45 0,89.34 -37.42,172.83 -95.04,230.46z"/>
  <path class="fil0" d="M5462.04 3024.89c98.69,0 175.54,24.65 230.51,73.99 54.96,49.34 82.45,119.06 82.45,209.13 0,89.41 -27.49,158.97 -82.45,208.65 -54.97,49.66 -131.82,74.5 -230.51,74.5l-14.87 0 0 80.47 -135.13 0 0 -80.47 -14.9 0c-98.69,0 -175.68,-24.84 -231,-74.5 -55.28,-49.68 -82.91,-119.23 -82.91,-208.65 0,-90.07 27.63,-159.79 82.91,-209.13 55.32,-49.34 132.31,-73.99 231,-73.99l14.9 0 0 -60.62 135.13 0 0 60.62 14.87 0zm-157.92 457.98l7.92 0 0 -350.69 -7.92 0c-56.31,0 -100.71,15.55 -133.16,46.67 -32.45,31.13 -48.69,74.19 -48.69,129.15 0,54.31 16.24,97.03 48.69,128.16 32.45,31.14 76.85,46.7 133.16,46.7zm149.99 0c56.94,0 101.52,-15.56 133.62,-46.7 32.13,-31.13 48.2,-73.85 48.2,-128.16 0,-54.96 -16.07,-98.02 -48.2,-129.15 -32.1,-31.12 -76.68,-46.67 -133.62,-46.67l-6.94 0 0 350.69 6.94 0zm977.56 188.75l-50.67 -161.92 -287.09 0 -50.67 161.92 -137.1 0 226.52 -695.44 213.6 0 227.51 695.44 -142.11 0zm-193.68 -619.93l-110.33 351.68 219.58 0 -109.26 -351.68zm842.47 200.69c74.8,0 136.6,16.89 185.26,50.67 48.66,33.78 73.01,86.76 73.01,158.93 0,49.04 -12.4,89.77 -37.24,122.22 -24.84,32.46 -55.95,55.12 -93.38,68.05 -37.41,12.92 -79.98,19.38 -127.65,19.38l-300.06 0 0 -695.44 504.71 0 0 108.32 -365.6 0 0 167.89 160.95 0zm-12.93 310.94c88.09,0 132.13,-34.1 132.13,-102.31 0,-68.91 -44.04,-103.32 -132.13,-103.32l-148.02 0 0 205.63 148.02 0zm497.73 108.3l0 -695.44 301 0c33.8,0 65.26,4.15 94.4,12.42 29.14,8.29 55.64,20.7 79.49,37.24 23.82,16.59 42.71,39.42 56.62,68.56 13.92,29.15 20.86,63.27 20.86,102.35 0,75.5 -22.87,129.97 -68.57,163.42 -45.66,33.45 -105.28,50.18 -178.82,50.18l-165.89 0 0 261.27 -139.1 0zm139.1 -368.57l145.03 0c86.12,0 129.16,-35.43 129.16,-106.3 0,-70.86 -43.05,-106.29 -129.16,-106.29l-145.03 0 0 212.59zm1026.25 -326.87l216.6 0 0 695.44 -135.13 0 0 -593.1 -249.36 593.1 -216.6 0 0 -695.44 136.11 0 0 593.1 248.37 -593.1zm1087.89 695.44l-165.93 0 -221.55 -297.04 -72.52 0 0 297.04 -139.1 0 0 -695.44 139.1 0 0 292.07 69.53 0 206.65 -292.07 161.94 0 -258.31 336.78 280.19 358.66zm671.57 0l-50.67 -161.92 -287.13 0 -50.67 161.92 -137.06 0 226.49 -695.44 213.59 0 227.51 695.44 -142.07 0zm-193.72 -619.93l-110.32 351.68 219.58 0 -109.27 -351.68zm1476.27 619.93l-165.89 0 -221.59 -297.04 -72.48 0 0 297.04 -139.1 0 0 -695.44 139.1 0 0 292.07 69.53 0 206.65 -292.07 161.94 0 -258.31 336.78 280.15 358.66zm198.69 -84.93c-57.61,-64.58 -86.42,-152.18 -86.42,-262.78 0,-110.61 28.81,-198.22 86.42,-262.79 57.65,-64.59 139.07,-96.85 244.39,-96.85 105.31,0 186.81,32.26 244.39,96.85 57.64,64.57 86.42,152.18 86.42,262.79 0,110.6 -28.78,198.2 -86.42,262.78 -57.58,64.57 -139.08,96.85 -244.39,96.85 -105.32,0 -186.74,-32.28 -244.39,-96.85zm103.8 -441.11c-34.07,45.36 -51.13,104.82 -51.13,178.33 0,73.5 17.06,132.95 51.13,178.33 34.11,45.36 81,68.04 140.59,68.04 60.29,0 107.29,-22.67 141.08,-68.04 33.76,-45.38 50.67,-104.83 50.67,-178.33 0,-73.51 -16.91,-132.97 -50.67,-178.33 -33.79,-45.36 -80.79,-68.07 -141.08,-68.07 -59.59,0 -106.48,22.7 -140.59,68.07zm1245.37 -169.4l241.37 0 -0.99 695.44 -132.13 0 0 -614.94 -162.93 614.94 -188.75 0 -162.93 -613.98 0 613.98 -133.11 0 0 -695.44 243.39 0 148.03 612.99 148.05 -612.99zm951.7 48.71c98.72,0 175.54,24.65 230.5,73.99 54.97,49.34 82.45,119.06 82.45,209.13 0,89.41 -27.48,158.97 -82.45,208.65 -54.96,49.66 -131.78,74.5 -230.5,74.5l-14.87 0 0 80.47 -135.13 0 0 -80.47 -14.87 0c-98.73,0 -175.72,-24.84 -231,-74.5 -55.32,-49.68 -82.98,-119.23 -82.98,-208.65 0,-90.07 27.66,-159.79 82.98,-209.13 55.28,-49.34 132.27,-73.99 231,-73.99l14.87 0 0 -60.62 135.13 0 0 60.62 14.87 0zm-157.93 457.98l7.93 0 0 -350.69 -7.93 0c-56.3,0 -100.7,15.55 -133.15,46.67 -32.45,31.13 -48.66,74.19 -48.66,129.15 0,54.31 16.21,97.03 48.66,128.16 32.45,31.14 76.85,46.7 133.15,46.7zm150 0c56.97,0 101.51,-15.56 133.61,-46.7 32.17,-31.13 48.2,-73.85 48.2,-128.16 0,-54.96 -16.03,-98.02 -48.2,-129.15 -32.1,-31.12 -76.64,-46.67 -133.61,-46.67l-6.94 0 0 350.69 6.94 0zm603.05 103.82c-57.61,-64.58 -86.43,-152.18 -86.43,-262.78 0,-110.61 28.82,-198.22 86.43,-262.79 57.61,-64.59 139.07,-96.85 244.38,-96.85 105.32,0 186.78,32.26 244.39,96.85 57.61,64.57 86.43,152.18 86.43,262.79 0,110.6 -28.82,198.2 -86.43,262.78 -57.61,64.57 -139.07,96.85 -244.39,96.85 -105.31,0 -186.77,-32.28 -244.38,-96.85zm103.8 -441.11c-34.08,45.36 -51.17,104.82 -51.17,178.33 0,73.5 17.09,132.95 51.17,178.33 34.11,45.36 80.96,68.04 140.58,68.04 60.29,0 107.3,-22.67 141.09,-68.04 33.79,-45.38 50.67,-104.83 50.67,-178.33 0,-73.51 -16.88,-132.97 -50.67,-178.33 -33.79,-45.36 -80.8,-68.07 -141.09,-68.07 -59.62,0 -106.47,22.7 -140.58,68.07zm705.86 526.04l0 -695.44 301.04 0c33.79,0 65.22,4.15 94.36,12.42 29.17,8.29 55.64,20.7 79.49,37.24 23.85,16.59 42.74,39.42 56.66,68.56 13.88,29.15 20.82,63.27 20.82,102.35 0,75.5 -22.87,129.97 -68.54,163.42 -45.69,33.45 -105.31,50.18 -178.81,50.18l-165.93 0 0 261.27 -139.1 0zm139.1 -368.57l145.06 0c86.12,0 129.13,-35.43 129.13,-106.3 0,-70.86 -43.02,-106.29 -129.13,-106.29l-145.06 0 0 212.59zm575.21 -212.59l0 -114.28 569.3 0 0 114.28 -214.62 0 0 581.16 -139.04 0 0 -581.16 -215.64 0zm1167.34 581.16l-50.64 -161.92 -287.13 0 -50.7 161.92 -137.06 0 226.52 -695.44 213.59 0 227.51 695.44 -142.1 0zm-193.72 -619.93l-110.29 351.68 219.58 0 -109.3 -351.68z"/>
 </g>
</svg>
